# xmcd CD database file generated by Grip 2.96
# 
# Track frame offsets:
#       150
#       11677
#       32545
#       51737
#       68592
#       87482
#       100305
#       116277
#       131142
#       153122
#       172040
#       187190
#       204807
# 
# Disc length: 2898 seconds
# 
# Revision: 0
# Processed by: cddbd v1.4PL0 Copyright (c) Steve Scherf et al.
# Submitted via: Grip 2.96
# 
DISCID=ae0b500d
DTITLE=One Riot One Ranger - Side Tracks
DYEAR=1900
DGENRE=
TTITLE0=Long and Slow Decline
TTITLE1=Do You Dream About Me?
TTITLE2=Goodbye to Galax
TTITLE3=Truck Stops and Pretty Girls
TTITLE4=Roll the Rock Away
TTITLE5=Who'll Stop the Rain?
TTITLE6=Sunset Girl
TTITLE7=Long Black Veil
TTITLE8=Shiloh
TTITLE9=I Think I'll Fall in Love
TTITLE10=Rain Fallin'
TTITLE11=Nothing Like Mexico
TTITLE12=It Must Be Heaven
EXTD=
EXTT0=
EXTT1=
EXTT2=
EXTT3=
EXTT4=
EXTT5=
EXTT6=
EXTT7=
EXTT8=
EXTT9=
EXTT10=
EXTT11=
EXTT12=
PLAYORDER=
